<?xml version="1.0" encoding="UTF-8" standalone="no"?>
<!-- Created with Inkscape (http://www.inkscape.org/) -->

<svg
   xmlns:dc="http://purl.org/dc/elements/1.1/"
   xmlns:cc="http://creativecommons.org/ns#"
   xmlns:rdf="http://www.w3.org/1999/02/22-rdf-syntax-ns#"
   xmlns:svg="http://www.w3.org/2000/svg"
   xmlns="http://www.w3.org/2000/svg"
   xmlns:sodipodi="http://sodipodi.sourceforge.net/DTD/sodipodi-0.dtd"
   xmlns:inkscape="http://www.inkscape.org/namespaces/inkscape"
   width="158.75mm"
   height="43.65625mm"
   viewBox="0 0 158.75 43.65625"
   version="1.1"
   id="svg8"
   inkscape:version="0.92.4 (5da689c313, 2019-01-14)"
   sodipodi:docname="TMT Logo.svg">
  <defs
     id="defs2" />
  <sodipodi:namedview
     id="base"
     pagecolor="#ffffff"
     bordercolor="#666666"
     borderopacity="1.0"
     inkscape:pageopacity="0.0"
     inkscape:pageshadow="2"
     inkscape:zoom="0.98994949"
     inkscape:cx="569.49316"
     inkscape:cy="179.12209"
     inkscape:document-units="mm"
     inkscape:current-layer="layer1"
     showgrid="false"
     fit-margin-top="0"
     fit-margin-left="0"
     fit-margin-right="0"
     fit-margin-bottom="0"
     inkscape:window-width="1920"
     inkscape:window-height="1017"
     inkscape:window-x="-8"
     inkscape:window-y="-8"
     inkscape:window-maximized="1" />
  <metadata
     id="metadata5">
    <rdf:RDF>
      <cc:Work
         rdf:about="">
        <dc:format>image/svg+xml</dc:format>
        <dc:type
           rdf:resource="http://purl.org/dc/dcmitype/StillImage" />
        <dc:title></dc:title>
      </cc:Work>
    </rdf:RDF>
  </metadata>
  <g
     inkscape:label="Layer 1"
     inkscape:groupmode="layer"
     id="layer1"
     transform="translate(-23.434525,-130.02902)">
    <path
       style="fill:#2c8a94;fill-opacity:1;stroke:none;stroke-width:1.57689011;stroke-linecap:round;stroke-linejoin:round;stroke-miterlimit:4;stroke-dasharray:none;stroke-dashoffset:0;stroke-opacity:1;paint-order:normal"
       d="m 119.05486,154.86045 c -0.0103,-9.29764 -0.10869,-17.13404 -0.21858,-17.41421 -0.1471,-0.37509 -1.383,2.2678 -4.68688,10.0226 -2.46791,5.79261 -5.76721,13.53359 -7.33179,17.20217 l -2.84469,6.67014 -0.0764,-3.19564 -0.0764,-3.19564 6.89176,-16.5001 6.89177,-16.50009 2.07134,-0.004 2.07134,-0.004 v 19.91158 19.91158 h -1.33635 -1.33635 l -0.0188,-16.9048 z"
       id="path4533"
       inkscape:connector-curvature="0" />
    <path
       style="fill:#2c8a94;fill-opacity:1;stroke:none;stroke-width:1.57689011;stroke-linecap:round;stroke-linejoin:round;stroke-miterlimit:4;stroke-dasharray:none;stroke-dashoffset:0;stroke-opacity:1;paint-order:normal"
       d="m 59.472548,151.85366 v -19.91158 h 8.418991 8.418989 v 1.46999 1.46998 h -6.949006 -6.949009 v 18.4416 18.44159 H 60.94253 59.472548 Z"
       id="path4535"
       inkscape:connector-curvature="0" />
    <path
       style="fill:#2d1d5b;fill-opacity:1;stroke:none;stroke-width:1.57689011;stroke-linecap:round;stroke-linejoin:round;stroke-miterlimit:4;stroke-dasharray:none;stroke-dashoffset:0;stroke-opacity:1;paint-order:normal"
       d="m 54.661698,153.32365 v -18.4416 h -6.681739 -6.681738 v -1.46998 -1.46999 h 8.285355 8.285356 v 19.91158 19.91158 h -1.603619 -1.603615 z"
       id="path4537"
       inkscape:connector-curvature="0" />
    <path
       style="fill:#2d1d5b;fill-opacity:1;stroke:none;stroke-width:1.57689011;stroke-linecap:round;stroke-linejoin:round;stroke-miterlimit:4;stroke-dasharray:none;stroke-dashoffset:0;stroke-opacity:1;paint-order:normal"
       d="m 142.59336,153.32365 v -18.4416 h -6.68174 -6.68173 v -1.46998 -1.46999 h 8.28535 8.28536 v 19.91158 19.91158 h -1.60362 -1.60362 z"
       id="path4541"
       inkscape:connector-curvature="0" />
    <path
       style="fill:#2c8a94;fill-opacity:1;stroke:none;stroke-width:1.57689023;stroke-linecap:round;stroke-linejoin:round;stroke-miterlimit:4;stroke-dasharray:none;stroke-dashoffset:0;stroke-opacity:1;paint-order:normal"
       d="m 147.40422,151.85366 v -19.91158 h 8.41899 8.41899 v 1.46999 1.46998 h -6.94901 -6.949 v 18.4416 18.44159 h -1.46999 -1.46998 z"
       id="path4535-0"
       inkscape:connector-curvature="0" />
    <path
       style="fill:#2d1d5b;fill-opacity:1;stroke:none;stroke-width:1.57689023;stroke-linecap:round;stroke-linejoin:round;stroke-miterlimit:4;stroke-dasharray:none;stroke-dashoffset:0;stroke-opacity:1;paint-order:normal"
       d="m 86.485547,154.86085 c 0.0103,-9.29764 0.10869,-17.13404 0.21858,-17.41421 0.1471,-0.37509 1.383,2.2678 4.686878,10.0226 2.46791,5.79261 5.76721,13.53359 7.33179,17.20217 l 2.844695,6.67014 0.0764,-3.19564 0.0764,-3.19564 -6.891765,-16.5001 -6.891768,-16.50009 -2.07134,-0.004 -2.07134,-0.004 v 19.91158 19.91158 h 1.33635 1.33635 l 0.0188,-16.9048 z"
       id="path4533-6"
       inkscape:connector-curvature="0" />
  </g>
</svg>
